<mxfile host="app.diagrams.net" agent="Mozilla/5.0 (Macintosh; Intel Mac OS X 10_15_7) AppleWebKit/605.1.15 (KHTML, like Gecko) Version/26.0.1 Safari/605.1.15" version="28.2.5" pages="2">
  <diagram name="Страница — 1" id="QAwYbJfvgkVjG-rEGAcN">
    <mxGraphModel dx="321" dy="782" grid="1" gridSize="10" guides="1" tooltips="1" connect="1" arrows="1" fold="1" page="1" pageScale="1" pageWidth="827" pageHeight="1169" math="0" shadow="0">
      <root>
        <mxCell id="0" />
        <mxCell id="1" parent="0" />
        <mxCell id="wUksPOQB8WpGineGd23I-5" value="Студент" style="swimlane;fontStyle=0;childLayout=stackLayout;horizontal=1;startSize=26;fillColor=none;horizontalStack=0;resizeParent=1;resizeParentMax=0;resizeLast=0;collapsible=1;marginBottom=0;whiteSpace=wrap;html=1;" parent="1" vertex="1">
          <mxGeometry x="1021" y="282" width="219" height="156" as="geometry" />
        </mxCell>
        <mxCell id="wUksPOQB8WpGineGd23I-6" value="+ фио: String" style="text;strokeColor=none;fillColor=none;align=left;verticalAlign=top;spacingLeft=4;spacingRight=4;overflow=hidden;rotatable=0;points=[[0,0.5],[1,0.5]];portConstraint=eastwest;whiteSpace=wrap;html=1;" parent="wUksPOQB8WpGineGd23I-5" vertex="1">
          <mxGeometry y="26" width="219" height="26" as="geometry" />
        </mxCell>
        <mxCell id="wUksPOQB8WpGineGd23I-50" value="+ группа: String" style="text;strokeColor=none;fillColor=none;align=left;verticalAlign=top;spacingLeft=4;spacingRight=4;overflow=hidden;rotatable=0;points=[[0,0.5],[1,0.5]];portConstraint=eastwest;whiteSpace=wrap;html=1;" parent="wUksPOQB8WpGineGd23I-5" vertex="1">
          <mxGeometry y="52" width="219" height="26" as="geometry" />
        </mxCell>
        <mxCell id="wUksPOQB8WpGineGd23I-46" value="+ дата_регистрации: String" style="text;strokeColor=none;fillColor=none;align=left;verticalAlign=top;spacingLeft=4;spacingRight=4;overflow=hidden;rotatable=0;points=[[0,0.5],[1,0.5]];portConstraint=eastwest;whiteSpace=wrap;html=1;" parent="wUksPOQB8WpGineGd23I-5" vertex="1">
          <mxGeometry y="78" width="219" height="26" as="geometry" />
        </mxCell>
        <mxCell id="wUksPOQB8WpGineGd23I-7" value="+ паспорт: Integer" style="text;strokeColor=none;fillColor=none;align=left;verticalAlign=top;spacingLeft=4;spacingRight=4;overflow=hidden;rotatable=0;points=[[0,0.5],[1,0.5]];portConstraint=eastwest;whiteSpace=wrap;html=1;" parent="wUksPOQB8WpGineGd23I-5" vertex="1">
          <mxGeometry y="104" width="219" height="26" as="geometry" />
        </mxCell>
        <mxCell id="wUksPOQB8WpGineGd23I-8" value="+ имеет_медсправку: Boolean" style="text;strokeColor=none;fillColor=none;align=left;verticalAlign=top;spacingLeft=4;spacingRight=4;overflow=hidden;rotatable=0;points=[[0,0.5],[1,0.5]];portConstraint=eastwest;whiteSpace=wrap;html=1;" parent="wUksPOQB8WpGineGd23I-5" vertex="1">
          <mxGeometry y="130" width="219" height="26" as="geometry" />
        </mxCell>
        <mxCell id="wUksPOQB8WpGineGd23I-9" value="Инструктор" style="swimlane;fontStyle=0;childLayout=stackLayout;horizontal=1;startSize=26;fillColor=none;horizontalStack=0;resizeParent=1;resizeParentMax=0;resizeLast=0;collapsible=1;marginBottom=0;whiteSpace=wrap;html=1;" parent="1" vertex="1">
          <mxGeometry x="985" y="520" width="270" height="140" as="geometry" />
        </mxCell>
        <mxCell id="wUksPOQB8WpGineGd23I-10" value="+ фио: String" style="text;strokeColor=none;fillColor=none;align=left;verticalAlign=top;spacingLeft=4;spacingRight=4;overflow=hidden;rotatable=0;points=[[0,0.5],[1,0.5]];portConstraint=eastwest;whiteSpace=wrap;html=1;" parent="wUksPOQB8WpGineGd23I-9" vertex="1">
          <mxGeometry y="26" width="270" height="26" as="geometry" />
        </mxCell>
        <mxCell id="wUksPOQB8WpGineGd23I-47" value="+ преподавательский _стаж: Integer" style="text;strokeColor=none;fillColor=none;align=left;verticalAlign=top;spacingLeft=4;spacingRight=4;overflow=hidden;rotatable=0;points=[[0,0.5],[1,0.5]];portConstraint=eastwest;whiteSpace=wrap;html=1;" parent="wUksPOQB8WpGineGd23I-9" vertex="1">
          <mxGeometry y="52" width="270" height="26" as="geometry" />
        </mxCell>
        <mxCell id="wUksPOQB8WpGineGd23I-12" value="+ статус: Boolean" style="text;strokeColor=none;fillColor=none;align=left;verticalAlign=top;spacingLeft=4;spacingRight=4;overflow=hidden;rotatable=0;points=[[0,0.5],[1,0.5]];portConstraint=eastwest;whiteSpace=wrap;html=1;" parent="wUksPOQB8WpGineGd23I-9" vertex="1">
          <mxGeometry y="78" width="270" height="62" as="geometry" />
        </mxCell>
        <mxCell id="wUksPOQB8WpGineGd23I-13" value="Автомобиль" style="swimlane;fontStyle=0;childLayout=stackLayout;horizontal=1;startSize=26;fillColor=none;horizontalStack=0;resizeParent=1;resizeParentMax=0;resizeLast=0;collapsible=1;marginBottom=0;whiteSpace=wrap;html=1;" parent="1" vertex="1">
          <mxGeometry x="1190" y="680" width="150" height="160" as="geometry" />
        </mxCell>
        <mxCell id="wUksPOQB8WpGineGd23I-14" value="+ марка: String" style="text;strokeColor=none;fillColor=none;align=left;verticalAlign=top;spacingLeft=4;spacingRight=4;overflow=hidden;rotatable=0;points=[[0,0.5],[1,0.5]];portConstraint=eastwest;whiteSpace=wrap;html=1;" parent="wUksPOQB8WpGineGd23I-13" vertex="1">
          <mxGeometry y="26" width="150" height="26" as="geometry" />
        </mxCell>
        <mxCell id="wUksPOQB8WpGineGd23I-15" value="+ госномер: String" style="text;strokeColor=none;fillColor=none;align=left;verticalAlign=top;spacingLeft=4;spacingRight=4;overflow=hidden;rotatable=0;points=[[0,0.5],[1,0.5]];portConstraint=eastwest;whiteSpace=wrap;html=1;" parent="wUksPOQB8WpGineGd23I-13" vertex="1">
          <mxGeometry y="52" width="150" height="26" as="geometry" />
        </mxCell>
        <mxCell id="wUksPOQB8WpGineGd23I-48" value="+ категория: String&lt;span style=&quot;caret-color: rgba(0, 0, 0, 0); color: rgba(0, 0, 0, 0); font-family: monospace; font-size: 0px; white-space: nowrap;&quot;&gt;%3CmxGraphModel%3E%3Croot%3E%3CmxCell%20id%3D%220%22%2F%3E%3CmxCell%20id%3D%221%22%20parent%3D%220%22%2F%3E%3CmxCell%20id%3D%222%22%20value%3D%22%2B%20%D1%81%D1%82%D0%B0%D0%B6%3A%20Integer%22%20style%3D%22text%3BstrokeColor%3Dnone%3BfillColor%3Dnone%3Balign%3Dleft%3BverticalAlign%3Dtop%3BspacingLeft%3D4%3BspacingRight%3D4%3Boverflow%3Dhidden%3Brotatable%3D0%3Bpoints%3D%5B%5B0%2C0.5%5D%2C%5B1%2C0.5%5D%5D%3BportConstraint%3Deastwest%3BwhiteSpace%3Dwrap%3Bhtml%3D1%3B%22%20vertex%3D%221%22%20parent%3D%221%22%3E%3CmxGeometry%20x%3D%22440%22%20y%3D%22164%22%20width%3D%22140%22%20height%3D%2226%22%20as%3D%22geometry%22%2F%3E%3C%2FmxCell%3E%3C%2Froot%3E%3C%2FmxGraphModel%3E&lt;/span&gt;" style="text;strokeColor=none;fillColor=none;align=left;verticalAlign=top;spacingLeft=4;spacingRight=4;overflow=hidden;rotatable=0;points=[[0,0.5],[1,0.5]];portConstraint=eastwest;whiteSpace=wrap;html=1;" parent="wUksPOQB8WpGineGd23I-13" vertex="1">
          <mxGeometry y="78" width="150" height="26" as="geometry" />
        </mxCell>
        <mxCell id="wUksPOQB8WpGineGd23I-16" value="+ год_выпуска: String&lt;span style=&quot;caret-color: rgba(0, 0, 0, 0); color: rgba(0, 0, 0, 0); font-family: monospace; font-size: 0px; white-space: nowrap;&quot;&gt;%3CmxGraphModel%3E%3Croot%3E%3CmxCell%20id%3D%220%22%2F%3E%3CmxCell%20id%3D%221%22%20parent%3D%220%22%2F%3E%3CmxCell%20id%3D%222%22%20value%3D%22%2B%20%D1%81%D1%82%D0%B0%D0%B6%3A%20Integer%22%20style%3D%22text%3BstrokeColor%3Dnone%3BfillColor%3Dnone%3Balign%3Dleft%3BverticalAlign%3Dtop%3BspacingLeft%3D4%3BspacingRight%3D4%3Boverflow%3Dhidden%3Brotatable%3D0%3Bpoints%3D%5B%5B0%2C0.5%5D%2C%5B1%2C0.5%5D%5D%3BportConstraint%3Deastwest%3BwhiteSpace%3Dwrap%3Bhtml%3D1%3B%22%20vertex%3D%221%22%20parent%3D%221%22%3E%3CmxGeometry%20x%3D%22440%22%20y%3D%22164%22%20width%3D%22140%22%20height%3D%2226%22%20as%3D%22geometry%22%2F%3E%3C%2FmxCell%3E%3C%2Froot%3E%3C%2FmxGraphModel%3E&lt;/span&gt;" style="text;strokeColor=none;fillColor=none;align=left;verticalAlign=top;spacingLeft=4;spacingRight=4;overflow=hidden;rotatable=0;points=[[0,0.5],[1,0.5]];portConstraint=eastwest;whiteSpace=wrap;html=1;" parent="wUksPOQB8WpGineGd23I-13" vertex="1">
          <mxGeometry y="104" width="150" height="26" as="geometry" />
        </mxCell>
        <mxCell id="kcBepoD6dP65CiGmaRNh-5" value="+ тех_состояние: Integer&lt;span style=&quot;caret-color: rgba(0, 0, 0, 0); color: rgba(0, 0, 0, 0); font-family: monospace; font-size: 0px; white-space: nowrap;&quot;&gt;%3CmxGraphModel%3E%3Croot%3E%3CmxCell%20id%3D%220%22%2F%3E%3CmxCell%20id%3D%221%22%20parent%3D%220%22%2F%3E%3CmxCell%20id%3D%222%22%20value%3D%22%2B%20%D1%81%D1%82%D0%B0%D0%B6%3A%20Integer%22%20style%3D%22text%3BstrokeColor%3Dnone%3BfillColor%3Dnone%3Balign%3Dleft%3BverticalAlign%3Dtop%3BspacingLeft%3D4%3BspacingRight%3D4%3Boverflow%3Dhidden%3Brotatable%3D0%3Bpoints%3D%5B%5B0%2C0.5%5D%2C%5B1%2C0.5%5D%5D%3BportConstraint%3Deastwest%3BwhiteSpace%3Dwrap%3Bhtml%3D1%3B%22%20vertex%3D%221%22%20parent%3D%221%22%3E%3CmxGeometry%20x%3D%22440%22%20y%3D%22164%22%20width%3D%22140%22%20height%3D%2226%22%20as%3D%22geometry%22%2F%3E%3C%2FmxCell%3E%3C%2Froot%3E%3C%2FmxGraphModel%3E&lt;/span&gt;" style="text;strokeColor=none;fillColor=none;align=left;verticalAlign=top;spacingLeft=4;spacingRight=4;overflow=hidden;rotatable=0;points=[[0,0.5],[1,0.5]];portConstraint=eastwest;whiteSpace=wrap;html=1;" vertex="1" parent="wUksPOQB8WpGineGd23I-13">
          <mxGeometry y="130" width="150" height="30" as="geometry" />
        </mxCell>
        <mxCell id="wUksPOQB8WpGineGd23I-17" value="Курс" style="swimlane;fontStyle=0;childLayout=stackLayout;horizontal=1;startSize=26;fillColor=none;horizontalStack=0;resizeParent=1;resizeParentMax=0;resizeLast=0;collapsible=1;marginBottom=0;whiteSpace=wrap;html=1;" parent="1" vertex="1">
          <mxGeometry x="1330" y="80" width="210" height="120" as="geometry" />
        </mxCell>
        <mxCell id="wUksPOQB8WpGineGd23I-18" value="+ категория_прав: String" style="text;strokeColor=none;fillColor=none;align=left;verticalAlign=top;spacingLeft=4;spacingRight=4;overflow=hidden;rotatable=0;points=[[0,0.5],[1,0.5]];portConstraint=eastwest;whiteSpace=wrap;html=1;" parent="wUksPOQB8WpGineGd23I-17" vertex="1">
          <mxGeometry y="26" width="210" height="26" as="geometry" />
        </mxCell>
        <mxCell id="wUksPOQB8WpGineGd23I-19" value="+ стоимость: Integer" style="text;strokeColor=none;fillColor=none;align=left;verticalAlign=top;spacingLeft=4;spacingRight=4;overflow=hidden;rotatable=0;points=[[0,0.5],[1,0.5]];portConstraint=eastwest;whiteSpace=wrap;html=1;" parent="wUksPOQB8WpGineGd23I-17" vertex="1">
          <mxGeometry y="52" width="210" height="26" as="geometry" />
        </mxCell>
        <mxCell id="wUksPOQB8WpGineGd23I-20" value="+ продолжительность_недель: Integer" style="text;strokeColor=none;fillColor=none;align=left;verticalAlign=top;spacingLeft=4;spacingRight=4;overflow=hidden;rotatable=0;points=[[0,0.5],[1,0.5]];portConstraint=eastwest;whiteSpace=wrap;html=1;" parent="wUksPOQB8WpGineGd23I-17" vertex="1">
          <mxGeometry y="78" width="210" height="42" as="geometry" />
        </mxCell>
        <mxCell id="wUksPOQB8WpGineGd23I-29" value="Занятие" style="swimlane;fontStyle=0;childLayout=stackLayout;horizontal=1;startSize=26;fillColor=none;horizontalStack=0;resizeParent=1;resizeParentMax=0;resizeLast=0;collapsible=1;marginBottom=0;whiteSpace=wrap;html=1;" parent="1" vertex="1">
          <mxGeometry x="1360" y="520" width="140" height="78" as="geometry" />
        </mxCell>
        <mxCell id="wUksPOQB8WpGineGd23I-30" value="+ тема: String" style="text;strokeColor=none;fillColor=none;align=left;verticalAlign=top;spacingLeft=4;spacingRight=4;overflow=hidden;rotatable=0;points=[[0,0.5],[1,0.5]];portConstraint=eastwest;whiteSpace=wrap;html=1;" parent="wUksPOQB8WpGineGd23I-29" vertex="1">
          <mxGeometry y="26" width="140" height="26" as="geometry" />
        </mxCell>
        <mxCell id="wUksPOQB8WpGineGd23I-31" value="+ посещение: Integer" style="text;strokeColor=none;fillColor=none;align=left;verticalAlign=top;spacingLeft=4;spacingRight=4;overflow=hidden;rotatable=0;points=[[0,0.5],[1,0.5]];portConstraint=eastwest;whiteSpace=wrap;html=1;" parent="wUksPOQB8WpGineGd23I-29" vertex="1">
          <mxGeometry y="52" width="140" height="26" as="geometry" />
        </mxCell>
        <mxCell id="wUksPOQB8WpGineGd23I-37" value="Экзамен" style="swimlane;fontStyle=0;childLayout=stackLayout;horizontal=1;startSize=26;fillColor=none;horizontalStack=0;resizeParent=1;resizeParentMax=0;resizeLast=0;collapsible=1;marginBottom=0;whiteSpace=wrap;html=1;" parent="1" vertex="1">
          <mxGeometry x="1041" y="75" width="200" height="104" as="geometry" />
        </mxCell>
        <mxCell id="wUksPOQB8WpGineGd23I-38" value="+ тип: String" style="text;strokeColor=none;fillColor=none;align=left;verticalAlign=top;spacingLeft=4;spacingRight=4;overflow=hidden;rotatable=0;points=[[0,0.5],[1,0.5]];portConstraint=eastwest;whiteSpace=wrap;html=1;" parent="wUksPOQB8WpGineGd23I-37" vertex="1">
          <mxGeometry y="26" width="200" height="26" as="geometry" />
        </mxCell>
        <mxCell id="wUksPOQB8WpGineGd23I-39" value="+ дата: Date" style="text;strokeColor=none;fillColor=none;align=left;verticalAlign=top;spacingLeft=4;spacingRight=4;overflow=hidden;rotatable=0;points=[[0,0.5],[1,0.5]];portConstraint=eastwest;whiteSpace=wrap;html=1;" parent="wUksPOQB8WpGineGd23I-37" vertex="1">
          <mxGeometry y="52" width="200" height="26" as="geometry" />
        </mxCell>
        <mxCell id="wUksPOQB8WpGineGd23I-40" value="+ результат: Boolean" style="text;strokeColor=none;fillColor=none;align=left;verticalAlign=top;spacingLeft=4;spacingRight=4;overflow=hidden;rotatable=0;points=[[0,0.5],[1,0.5]];portConstraint=eastwest;whiteSpace=wrap;html=1;" parent="wUksPOQB8WpGineGd23I-37" vertex="1">
          <mxGeometry y="78" width="200" height="26" as="geometry" />
        </mxCell>
        <mxCell id="wUksPOQB8WpGineGd23I-64" value="" style="endArrow=diamondThin;endFill=1;endSize=24;html=1;rounded=0;" parent="1" edge="1">
          <mxGeometry width="160" relative="1" as="geometry">
            <mxPoint x="1240" y="140" as="sourcePoint" />
            <mxPoint x="1330" y="139.58" as="targetPoint" />
          </mxGeometry>
        </mxCell>
        <mxCell id="wUksPOQB8WpGineGd23I-65" value="" style="endArrow=diamondThin;endFill=0;endSize=24;html=1;rounded=0;" parent="1" edge="1">
          <mxGeometry width="160" relative="1" as="geometry">
            <mxPoint x="1120" y="440" as="sourcePoint" />
            <mxPoint x="1120" y="520" as="targetPoint" />
          </mxGeometry>
        </mxCell>
        <mxCell id="wUksPOQB8WpGineGd23I-68" value="" style="endArrow=diamondThin;endFill=0;endSize=24;html=1;rounded=0;" parent="1" edge="1">
          <mxGeometry width="160" relative="1" as="geometry">
            <mxPoint x="1410" y="599" as="sourcePoint" />
            <mxPoint x="1340" y="750" as="targetPoint" />
            <Array as="points">
              <mxPoint x="1410" y="750" />
            </Array>
          </mxGeometry>
        </mxCell>
        <mxCell id="wUksPOQB8WpGineGd23I-69" value="" style="endArrow=diamondThin;endFill=1;endSize=24;html=1;rounded=0;entryX=0.444;entryY=1.006;entryDx=0;entryDy=0;entryPerimeter=0;exitX=0;exitY=0.5;exitDx=0;exitDy=0;" parent="1" source="wUksPOQB8WpGineGd23I-15" target="wUksPOQB8WpGineGd23I-12" edge="1">
          <mxGeometry width="160" relative="1" as="geometry">
            <mxPoint x="930" y="750" as="sourcePoint" />
            <mxPoint x="1090" y="750" as="targetPoint" />
            <Array as="points">
              <mxPoint x="1105" y="745" />
            </Array>
          </mxGeometry>
        </mxCell>
        <mxCell id="wUksPOQB8WpGineGd23I-70" value="1" style="text;html=1;align=center;verticalAlign=middle;resizable=0;points=[];autosize=1;strokeColor=none;fillColor=none;" parent="1" vertex="1">
          <mxGeometry x="1170" y="720" width="30" height="30" as="geometry" />
        </mxCell>
        <mxCell id="wUksPOQB8WpGineGd23I-74" value="" style="endArrow=diamondThin;endFill=1;endSize=24;html=1;rounded=0;entryX=0.5;entryY=0;entryDx=0;entryDy=0;exitX=0.446;exitY=1.005;exitDx=0;exitDy=0;exitPerimeter=0;" parent="1" source="wUksPOQB8WpGineGd23I-40" target="wUksPOQB8WpGineGd23I-5" edge="1">
          <mxGeometry width="160" relative="1" as="geometry">
            <mxPoint x="1050.5" y="240" as="sourcePoint" />
            <mxPoint x="1210.5" y="240" as="targetPoint" />
          </mxGeometry>
        </mxCell>
        <mxCell id="kPPWsQkAGOzfzcdoqyH--1" value="" style="endArrow=diamondThin;endFill=1;endSize=24;html=1;rounded=0;exitX=0;exitY=0.5;exitDx=0;exitDy=0;" edge="1" parent="1" source="wUksPOQB8WpGineGd23I-31">
          <mxGeometry width="160" relative="1" as="geometry">
            <mxPoint x="1190" y="640" as="sourcePoint" />
            <mxPoint x="1260" y="585" as="targetPoint" />
          </mxGeometry>
        </mxCell>
        <mxCell id="kPPWsQkAGOzfzcdoqyH--3" value="Actor" style="shape=umlActor;verticalLabelPosition=bottom;verticalAlign=top;html=1;" vertex="1" parent="1">
          <mxGeometry x="2000" y="399" width="30" height="60" as="geometry" />
        </mxCell>
        <mxCell id="GoUFbPO1qaWwFP-hD7Qs-1" value="" style="endArrow=diamondThin;endFill=1;endSize=24;html=1;rounded=0;exitX=0;exitY=0.5;exitDx=0;exitDy=0;" edge="1" parent="1" source="wUksPOQB8WpGineGd23I-38">
          <mxGeometry width="160" relative="1" as="geometry">
            <mxPoint x="920" y="100" as="sourcePoint" />
            <mxPoint x="980" y="571" as="targetPoint" />
            <Array as="points">
              <mxPoint x="920" y="114" />
              <mxPoint x="920" y="571" />
            </Array>
          </mxGeometry>
        </mxCell>
        <mxCell id="GoUFbPO1qaWwFP-hD7Qs-2" value="1" style="text;html=1;align=center;verticalAlign=middle;resizable=0;points=[];autosize=1;strokeColor=none;fillColor=none;" vertex="1" parent="1">
          <mxGeometry x="1105" y="178" width="30" height="30" as="geometry" />
        </mxCell>
        <mxCell id="kcBepoD6dP65CiGmaRNh-1" value="" style="endArrow=diamondThin;endFill=1;endSize=24;html=1;rounded=0;entryX=0.781;entryY=1.045;entryDx=0;entryDy=0;entryPerimeter=0;exitX=0.5;exitY=0;exitDx=0;exitDy=0;" edge="1" parent="1" source="wUksPOQB8WpGineGd23I-29" target="wUksPOQB8WpGineGd23I-8">
          <mxGeometry width="160" relative="1" as="geometry">
            <mxPoint x="1190" y="470" as="sourcePoint" />
            <mxPoint x="1350" y="470" as="targetPoint" />
            <Array as="points">
              <mxPoint x="1430" y="480" />
              <mxPoint x="1380" y="480" />
              <mxPoint x="1192" y="480" />
            </Array>
          </mxGeometry>
        </mxCell>
        <mxCell id="kcBepoD6dP65CiGmaRNh-3" value="" style="endArrow=diamondThin;endFill=1;endSize=24;html=1;rounded=0;entryX=0.519;entryY=1.036;entryDx=0;entryDy=0;entryPerimeter=0;" edge="1" parent="1" target="wUksPOQB8WpGineGd23I-20">
          <mxGeometry width="160" relative="1" as="geometry">
            <mxPoint x="1241" y="359.40999999999997" as="sourcePoint" />
            <mxPoint x="1401" y="359.40999999999997" as="targetPoint" />
            <Array as="points">
              <mxPoint x="1439" y="360" />
            </Array>
          </mxGeometry>
        </mxCell>
        <mxCell id="BifNgcwuPWVsivKIQP8m-1" value="" style="endArrow=diamondThin;endFill=1;endSize=24;html=1;rounded=0;entryX=1;entryY=0.5;entryDx=0;entryDy=0;exitX=1;exitY=0.5;exitDx=0;exitDy=0;" edge="1" parent="1" source="wUksPOQB8WpGineGd23I-12" target="wUksPOQB8WpGineGd23I-19">
          <mxGeometry width="160" relative="1" as="geometry">
            <mxPoint x="1140" y="460" as="sourcePoint" />
            <mxPoint x="1300" y="460" as="targetPoint" />
            <Array as="points">
              <mxPoint x="1610" y="630" />
              <mxPoint x="1610" y="145" />
            </Array>
          </mxGeometry>
        </mxCell>
      </root>
    </mxGraphModel>
  </diagram>
  <diagram id="qtcbVxGvF-eRT-Srnhxi" name="Страница — 3">
    <mxGraphModel dx="976" dy="665" grid="1" gridSize="10" guides="1" tooltips="1" connect="1" arrows="1" fold="1" page="1" pageScale="1" pageWidth="827" pageHeight="1169" math="0" shadow="0">
      <root>
        <mxCell id="0" />
        <mxCell id="1" parent="0" />
        <mxCell id="GSiBFocox1iAfgPtR_PH-1" value=":User" style="shape=umlActor;verticalLabelPosition=bottom;verticalAlign=top;html=1;" vertex="1" parent="1">
          <mxGeometry x="40" y="380" width="30" height="60" as="geometry" />
        </mxCell>
        <mxCell id="GSiBFocox1iAfgPtR_PH-2" value=":Controller" style="html=1;whiteSpace=wrap;" vertex="1" parent="1">
          <mxGeometry x="340" y="350" width="130" height="100" as="geometry" />
        </mxCell>
        <mxCell id="GSiBFocox1iAfgPtR_PH-3" value="" style="line;strokeWidth=1;fillColor=none;align=left;verticalAlign=middle;spacingTop=-1;spacingLeft=3;spacingRight=3;rotatable=0;labelPosition=right;points=[];portConstraint=eastwest;strokeColor=inherit;" vertex="1" parent="1">
          <mxGeometry x="80" y="406" width="260" height="8" as="geometry" />
        </mxCell>
        <mxCell id="n37fG8gkdwUqP45SpHdC-1" value="1: drivingReservation(datetime)" style="text;html=1;align=center;verticalAlign=middle;resizable=0;points=[];autosize=1;strokeColor=none;fillColor=none;" vertex="1" parent="1">
          <mxGeometry x="125" y="370" width="190" height="30" as="geometry" />
        </mxCell>
        <mxCell id="9Q92C9y7-4zUKjrQ7Lec-5" value="" style="html=1;verticalAlign=bottom;startArrow=none;startFill=0;endArrow=open;startSize=6;endSize=8;curved=0;rounded=0;exitX=0.108;exitY=0.982;exitDx=0;exitDy=0;exitPerimeter=0;entryX=0.909;entryY=0.982;entryDx=0;entryDy=0;entryPerimeter=0;" edge="1" parent="1" source="n37fG8gkdwUqP45SpHdC-1" target="n37fG8gkdwUqP45SpHdC-1">
          <mxGeometry x="1" y="-78" width="80" relative="1" as="geometry">
            <mxPoint x="180" y="400" as="sourcePoint" />
            <mxPoint x="260" y="400" as="targetPoint" />
            <mxPoint x="50" y="-18" as="offset" />
          </mxGeometry>
        </mxCell>
        <mxCell id="4_yCKiV1S9GNA5D5pq3B-1" value="instructor:Instructor" style="html=1;whiteSpace=wrap;" vertex="1" parent="1">
          <mxGeometry x="550" y="240" width="120" height="50" as="geometry" />
        </mxCell>
        <mxCell id="4_yCKiV1S9GNA5D5pq3B-2" value="" style="html=1;verticalAlign=bottom;startArrow=none;startFill=0;endArrow=none;curved=1;rounded=0;exitX=0.5;exitY=0;exitDx=0;exitDy=0;strokeColor=default;endFill=0;entryX=0.5;entryY=1;entryDx=0;entryDy=0;" edge="1" parent="1" source="GSiBFocox1iAfgPtR_PH-2" target="4_yCKiV1S9GNA5D5pq3B-1">
          <mxGeometry x="1" y="-78" width="80" relative="1" as="geometry">
            <mxPoint x="414" y="380" as="sourcePoint" />
            <mxPoint x="400" y="281" as="targetPoint" />
            <mxPoint x="50" y="-18" as="offset" />
          </mxGeometry>
        </mxCell>
        <mxCell id="xx4M61LE_qQCZIVW691D-6" value="car:Car" style="html=1;whiteSpace=wrap;" vertex="1" parent="1">
          <mxGeometry x="660" y="406" width="130" height="72.5" as="geometry" />
        </mxCell>
        <mxCell id="xx4M61LE_qQCZIVW691D-7" value="" style="html=1;verticalAlign=bottom;startArrow=none;startFill=0;endArrow=none;curved=1;rounded=0;exitX=1;exitY=0.5;exitDx=0;exitDy=0;strokeColor=default;endFill=0;entryX=0;entryY=0.5;entryDx=0;entryDy=0;" edge="1" parent="1" source="GSiBFocox1iAfgPtR_PH-2" target="xx4M61LE_qQCZIVW691D-6">
          <mxGeometry x="1" y="-78" width="80" relative="1" as="geometry">
            <mxPoint x="400" y="679" as="sourcePoint" />
            <mxPoint x="580" y="414" as="targetPoint" />
            <mxPoint x="50" y="-18" as="offset" />
          </mxGeometry>
        </mxCell>
        <mxCell id="xx4M61LE_qQCZIVW691D-8" value="student:Student" style="html=1;whiteSpace=wrap;" vertex="1" parent="1">
          <mxGeometry x="230" y="585" width="110" height="50" as="geometry" />
        </mxCell>
        <mxCell id="xx4M61LE_qQCZIVW691D-10" value="" style="html=1;verticalAlign=bottom;startArrow=none;startFill=0;endArrow=none;curved=1;rounded=0;exitX=0.5;exitY=1;exitDx=0;exitDy=0;entryX=0.5;entryY=0;entryDx=0;entryDy=0;strokeColor=default;endFill=0;" edge="1" parent="1" source="GSiBFocox1iAfgPtR_PH-2" target="xx4M61LE_qQCZIVW691D-8">
          <mxGeometry x="1" y="-78" width="80" relative="1" as="geometry">
            <mxPoint x="420" y="490" as="sourcePoint" />
            <mxPoint x="528" y="491" as="targetPoint" />
            <mxPoint x="50" y="-18" as="offset" />
          </mxGeometry>
        </mxCell>
        <mxCell id="xx4M61LE_qQCZIVW691D-12" value="" style="html=1;align=left;spacingLeft=2;endArrow=none;rounded=0;edgeStyle=orthogonalEdgeStyle;curved=0;rounded=0;endFill=0;" edge="1" parent="1">
          <mxGeometry x="-0.2941" y="-50" relative="1" as="geometry">
            <mxPoint x="470" y="427.25" as="sourcePoint" />
            <Array as="points">
              <mxPoint x="530" y="427" />
              <mxPoint x="530" y="500" />
              <mxPoint x="448" y="500" />
            </Array>
            <mxPoint x="448" y="450" as="targetPoint" />
            <mxPoint x="50" y="-50" as="offset" />
          </mxGeometry>
        </mxCell>
        <mxCell id="xx4M61LE_qQCZIVW691D-13" value="" style="html=1;verticalAlign=bottom;startArrow=none;startFill=0;endArrow=open;startSize=6;endSize=8;curved=0;rounded=0;" edge="1" parent="1">
          <mxGeometry x="1" y="-78" width="80" relative="1" as="geometry">
            <mxPoint x="410" y="330" as="sourcePoint" />
            <mxPoint x="540" y="290" as="targetPoint" />
            <mxPoint x="50" y="-18" as="offset" />
          </mxGeometry>
        </mxCell>
        <mxCell id="LfXD37lfIeuBBXEeCQgN-1" value="&lt;div&gt;[instructorStatus = True]]&lt;/div&gt;1.1: CheckIsInstructorFree(datetime)" style="text;html=1;align=center;verticalAlign=middle;resizable=0;points=[];autosize=1;strokeColor=none;fillColor=none;rotation=-15;" vertex="1" parent="1">
          <mxGeometry x="340" y="275" width="220" height="40" as="geometry" />
        </mxCell>
        <mxCell id="LfXD37lfIeuBBXEeCQgN-2" value="&lt;div&gt;[carCondition &amp;gt; 3]&lt;/div&gt;1.2: CheckCarCondition()" style="text;html=1;align=center;verticalAlign=middle;resizable=0;points=[];autosize=1;strokeColor=none;fillColor=none;rotation=15;" vertex="1" parent="1">
          <mxGeometry x="490" y="365" width="160" height="40" as="geometry" />
        </mxCell>
        <mxCell id="LfXD37lfIeuBBXEeCQgN-4" value="" style="html=1;verticalAlign=bottom;startArrow=none;startFill=0;endArrow=open;startSize=6;endSize=8;curved=0;rounded=0;entryX=0.9;entryY=1.098;entryDx=0;entryDy=0;entryPerimeter=0;" edge="1" parent="1" target="LfXD37lfIeuBBXEeCQgN-2">
          <mxGeometry x="1" y="-78" width="80" relative="1" as="geometry">
            <mxPoint x="510" y="390" as="sourcePoint" />
            <mxPoint x="640" y="570" as="targetPoint" />
            <mxPoint x="50" y="-18" as="offset" />
          </mxGeometry>
        </mxCell>
        <mxCell id="LfXD37lfIeuBBXEeCQgN-5" value="" style="html=1;verticalAlign=bottom;startArrow=none;startFill=0;endArrow=open;startSize=6;endSize=8;curved=0;rounded=0;" edge="1" parent="1">
          <mxGeometry x="1" y="-78" width="80" relative="1" as="geometry">
            <mxPoint x="360" y="480" as="sourcePoint" />
            <mxPoint x="280" y="570" as="targetPoint" />
            <mxPoint x="50" y="-18" as="offset" />
          </mxGeometry>
        </mxCell>
        <mxCell id="LfXD37lfIeuBBXEeCQgN-7" value="&lt;div&gt;[isMedicalCard = True]]&lt;/div&gt;1.3: CheckMedicalCard()" style="text;html=1;align=center;verticalAlign=middle;resizable=0;points=[];autosize=1;strokeColor=none;fillColor=none;" vertex="1" parent="1">
          <mxGeometry x="170" y="490" width="160" height="40" as="geometry" />
        </mxCell>
        <mxCell id="LfXD37lfIeuBBXEeCQgN-8" value="&lt;div&gt;[isMedicalCard = True and carCondition &amp;gt; 3 and instructorStatus = True]&lt;/div&gt;1.4: ConfirmDrivingReservation()" style="text;html=1;align=center;verticalAlign=middle;resizable=0;points=[];autosize=1;strokeColor=none;fillColor=none;" vertex="1" parent="1">
          <mxGeometry x="390" y="500" width="410" height="40" as="geometry" />
        </mxCell>
      </root>
    </mxGraphModel>
  </diagram>
</mxfile>
